<?xml version="1.0" encoding="utf-8"?>
<!-- Generator: Adobe Illustrator 20.1.0, SVG Export Plug-In . SVG Version: 6.00 Build 0)  -->
<svg version="1.1" id="Layer_1" xmlns="http://www.w3.org/2000/svg" xmlns:xlink="http://www.w3.org/1999/xlink" x="0px" y="0px"
	 viewBox="0 0 174.4 435" style="enable-background:new 0 0 174.4 435;" xml:space="preserve">
<style type="text/css">
	.st0{fill:#603813;}
	.st1{fill:none;stroke:#000000;stroke-width:0.2381;stroke-miterlimit:10;}
	.st2{stroke:#000000;stroke-width:0.2381;stroke-miterlimit:10;}
	.st3{fill:#603813;stroke:#000000;stroke-width:0.5426;stroke-miterlimit:10;}
	.st4{fill:none;}
	.st5{stroke:#000000;stroke-width:0.2713;stroke-miterlimit:10;}
	.st6{fill:none;stroke:#000000;stroke-width:0.5901;stroke-miterlimit:10;}
	.st7{fill:#FFFFFF;stroke:#000000;stroke-width:0.4809;stroke-miterlimit:10;}
	.st8{fill:#FFFFFF;}
	.st9{fill:none;stroke:#000000;stroke-width:0.4931;stroke-miterlimit:10;}
	.st10{fill:none;stroke:#000000;stroke-width:0.355;stroke-miterlimit:10;}
	.st11{fill:none;stroke:#000000;stroke-width:0.4262;stroke-miterlimit:10;}
	.st12{fill:#603813;stroke:#000000;stroke-width:0.2713;stroke-miterlimit:10;}
	.st13{fill:#C6803A;}
	.st14{fill:#C6803A;stroke:#000000;stroke-width:0.3711;stroke-miterlimit:10;}
	.st15{fill:none;stroke:#000000;stroke-width:0.3711;stroke-miterlimit:10;}
</style>
<g id="Layer_3">
	<g id="XMLID_1_">
		<g>
			<path class="st0" d="M27.3,21c0,0,1.4,3.1,1.1,3.7c-5.7,11.9-10,0.4-10,0.4c0.6-0.2,1-4,1-4L27.3,21z"/>
		</g>
		<g>
			<path class="st1" d="M28.4,24.6c0.2-0.5-1.1-3.7-1.1-3.7l-7.9,0c0,0-0.4,3.8-1,4C18.4,25,22.7,36.5,28.4,24.6z"/>
		</g>
	</g>
	<g>
		<g>
			<path class="st0" d="M23.3,22.8c-3.6,0-6.5-4-6.5-9s2.9-9,6.5-9s6.5,4,6.5,9S26.9,22.8,23.3,22.8z"/>
			<path d="M23.3,5c3.5,0,6.4,4,6.4,8.9s-2.8,8.9-6.4,8.9s-6.4-4-6.4-8.9S19.8,5,23.3,5 M23.3,4.7c-3.7,0-6.7,4.1-6.7,9.1
				s3,9.1,6.7,9.1c3.7,0,6.7-4.1,6.7-9.1S27,4.7,23.3,4.7L23.3,4.7z"/>
		</g>
		<path class="st2" d="M29.6,10.7c-4.6-1.6-12.4,0-12.4,0s-0.6-3.3-0.5-5.1c0-0.1,0-0.1,0-0.1c0-0.1,0-0.1,0-0.2c0,0,0-0.1,0-0.1
			c0-0.4,0.1-0.6,0.3-0.7c0,0,0.1,0,0.1-0.1C17.4,4,17.9,4,18.4,4c0,0,0.1,0,0.1,0c0.3-0.1,0.6-0.3,0.8-0.2c0.1,0,0.1,0,0.1,0
			c0.1,0,0.2,0,0.3,0c0,0,0.1,0,0.1,0c0,0,0.1,0,0.1,0c0.6-0.4,0.9,0,1.2-0.1c0,0,0.1,0,0.1,0c0,0,0.1,0,0.1,0c0,0,0.1,0,0.1-0.1
			c0,0,0.1,0,0.1,0c0.1,0,0.1,0,0.1,0c0.4-0.4,1.2,0,1.7-0.4c0,0,0.1,0,0.1-0.1c0.1,0,0.1,0,0.2,0s0.1,0,0.2,0c0.3,0,0.5,0,0.8-0.1
			c0.1,0,0.2-0.1,0.2-0.1c0.2-0.1,0.5-0.1,0.7,0.1c0,0,0.1,0,0.1,0c0.4-0.1,0.6-0.1,1,0.1c0.1,0,0.1,0,0.2,0c0.3-0.1,0.6-0.1,0.8,0
			c0,0,0.1,0,0.1,0.1c0.6,0,1.1-0.2,1.4,0.2c0,0,0.1,0,0.1,0c0.3-0.1,0.5-0.1,0.6,0c0,0,0.1,0,0.1,0.1c0.7,0.2,0.4,0.7,0.5,1.2
			c0,0.1,0.1,0.2,0.1,0.3c0,0,0,0.1,0,0.1C30.9,7,29.6,10.7,29.6,10.7z"/>
	</g>
</g>
<g id="Layer_1_1_">
	<g>
		<polyline class="st3" points="31.5,109.3 31.5,115 27.1,113.8 27.1,107.9 		"/>
		<polyline class="st3" points="16.8,109.3 16.8,114.4 21.2,113.4 21.2,107.9 		"/>
		<g>
			<path class="st4" d="M25.5,78.1c-0.5,0-0.8,0-1.1,0v3.4v-3.4c-0.8,0-0.8,0-0.8,0s-0.2,4.3-0.5,10h3.4
				C26.3,82.4,26,78.1,25.5,78.1z"/>
			<path class="st5" d="M24.6,78V64.1c-8.1,0.2-11.7-1.3-13.6-1.3c0,0,1.1,12.9,2.5,25.4h9.7c0.3-5.7,0.5-10.3,0.5-10.3
				S23.8,78,24.6,78z"/>
			<path class="st5" d="M36.5,62.8c-4.8,0.9-8.9,1.2-11.9,1.3V78c0.3,0,0.5,0,1,0c0.5,0,0.8,4.6,1,10.3h8.4
				C36.6,75.8,38.2,62.5,36.5,62.8z"/>
			<path class="st5" d="M16.7,109.5c0,0,3.4,1.1,4.5-0.6c0.7-1,1.4-12.3,1.9-20.7h-9.7C14.5,97.5,15.8,106.7,16.7,109.5z"/>
			<path class="st5" d="M26.5,88.3c0.3,9,0.4,20.8,0.5,21.4c0.2,0.9,4.9,1,4.9-0.7c0-0.8,1.5-10.4,3-20.7L26.5,88.3L26.5,88.3z"/>
		</g>
	</g>
	<path class="st6" d="M25.2,111.9"/>
	<g>
		<path class="st7" d="M14.3,115.6"/>
		<path class="st7" d="M11.4,114.6"/>
		<g id="XMLID_2_">
			<g>
				<path class="st8" d="M22.5,113.6c0.4,0.2-11.4,5.6-11.4,5.6l5.8-6.3c0.4-0.2,0.5-0.3,0.5-0.3c1.7,0.2,3.6-0.2,4.2-2.2
					c0.1-0.2,0-0.6,0-0.6C23.5,109.2,22.5,113.6,22.5,113.6z"/>
				<path class="st8" d="M14.7,111.9c2.8-3.2,2.3,0.9,2.3,0.9l-0.1,0.1c-1.4,0.8-4.9,2.7-5.2,3.8c-0.4,1.4-0.5,2.5-0.5,2.5
					c-0.6,0.1-2.1,0.2-2.4-0.6c-0.3-0.7,0.4-1.4,0.9-1.9c0.3-0.3,0.6-0.6,0.8-0.9C11.6,114.7,13.5,113,14.7,111.9z"/>
				<path class="st8" d="M16.9,112.9l-5.8,6.3c0,0,0.1-1.2,0.5-2.5C12,115.7,15.5,113.7,16.9,112.9z"/>
			</g>
			<g>
				<path class="st9" d="M11.1,119.2c0,0,11.7-5.5,11.4-5.6c0,0,1-4.5-0.9-3.8c0,0,0.1,0.4,0,0.6c-0.6,2-2.4,2.4-4.2,2.2
					c0,0-0.2,0.1-0.5,0.3c-1.4,0.8-4.9,2.7-5.2,3.8C11.2,118.1,11.1,119.2,11.1,119.2c-0.6,0.1-2.1,0.2-2.4-0.6
					c-0.3-0.7,0.4-1.4,0.9-1.9c0.3-0.3,0.6-0.6,0.8-0.9c1.1-1.1,3-2.9,4.2-4c2.8-3.2,2.3,0.9,2.3,0.9"/>
			</g>
		</g>
		<path class="st10" d="M13.5,113.1c0,0,2.4-0.2,2.2,0.5"/>
		<path class="st10" d="M12.4,114.1c0,0,2.3-0.4,2.1,0.3"/>
		<path class="st10" d="M14,114.6c0,0-0.2-0.9-0.8-1.2"/>
		<path class="st10" d="M12.7,115.6c0,0,0-0.9-0.6-1.2"/>
		<path class="st10" d="M15.3,114c-0.1,0-0.6-1.4-1.1-1.6"/>
		<path class="st10" d="M11.6,114.8c0,0,1.4-0.1,1.8,0.3"/>
		<path class="st10" d="M12,116.5c0,0-0.1-1.1-0.7-1.4"/>
		<path class="st11" d="M11.7,117.1c0,0-0.7-0.8-1.7-0.8"/>
		<path class="st10" d="M10.6,115.9c0,0,1.9-0.5,1.8-0.1"/>
	</g>
	<path class="st6" d="M23.3,112.4"/>
	<g>
		<path class="st7" d="M34.1,116.2"/>
		<g>
			<path class="st10" d="M33.2,114.5c0.1,0,0.6-1.4,1.1-1.6"/>
			<g>
				<path class="st7" d="M37,115.1"/>
				<g id="XMLID_3_">
					<g>
						<path class="st8" d="M26,114.2c-0.4,0.2,11.4,5.6,11.4,5.6l-5.8-6.3c-0.4-0.2-0.5-0.3-0.5-0.3c-1.7,0.2-3.6-0.2-4.2-2.2
							c-0.1-0.2,0-0.6,0-0.6C25,109.7,26,114.1,26,114.2z"/>
						<path class="st8" d="M33.8,112.4c-3.4-3.5-2.3,0.9-2.3,0.9l0.1,0.1c1.4,0.8,4.9,2.7,5.2,3.8c0.4,1.4,0.5,2.6,0.5,2.6
							c0.6,0.1,2.1,0.2,2.4-0.6c0.3-0.7-0.4-1.4-0.9-1.9c-0.3-0.3-0.6-0.6-0.8-0.9C36.9,115.3,35,113.5,33.8,112.4z"/>
						<path class="st8" d="M31.6,113.5l5.8,6.3c0,0-0.1-1.2-0.5-2.6C36.5,116.2,33,114.2,31.6,113.5z"/>
					</g>
					<g>
						<path class="st9" d="M37.3,119.8c0,0-11.7-5.5-11.4-5.6c0,0-1-4.5,0.9-3.8c0,0-0.1,0.4,0,0.6c0.6,2,2.4,2.4,4.2,2.2
							c0,0,0.2,0.1,0.5,0.3c1.4,0.8,4.9,2.7,5.2,3.8C37.2,118.6,37.3,119.8,37.3,119.8c0.6,0.1,2.1,0.2,2.4-0.6
							c0.3-0.7-0.4-1.4-0.9-1.9c-0.3-0.3-0.6-0.6-0.8-0.9c-1.1-1.1-3-2.9-4.2-4c-3.4-3.5-2.3,0.9-2.3,0.9"/>
					</g>
				</g>
				<path class="st10" d="M35,113.7c0,0-2.4-0.2-2.2,0.5"/>
				<path class="st10" d="M36,114.6c0,0-2.3-0.4-2.1,0.3"/>
				<path class="st10" d="M34.5,115.1c0,0,0.2-0.9,0.8-1.2"/>
				<path class="st10" d="M35.8,116.1c0,0,0-0.9,0.6-1.2"/>
				<path class="st10" d="M36.9,115.3c0,0-1.4-0.1-1.8,0.3"/>
				<path class="st10" d="M36.5,117c0,0,0.1-1.1,0.7-1.4"/>
				<path class="st11" d="M36.8,117.6c0,0,0.7-0.8,1.7-0.8"/>
				<path class="st10" d="M37.9,116.4c0,0-1.9-0.5-1.8-0.1"/>
			</g>
		</g>
		<path class="st10" d="M33.5,114.5c0.1,0,0.6-1.4,1.1-1.6"/>
	</g>
	<path class="st10" d="M22.6,112.9"/>
	<g>
		<path class="st12" d="M45.6,44c0,0,1.7,20,0.1,22.8c-1.6,2.8-2.7,0-2.7,0S39.7,45.4,40.6,44"/>
		<path class="st12" d="M3.6,45.1c0,0-2,19.4-0.4,22.2c1.6,2.8,2.7,0,2.7,0s3.2-20.9,2.5-21.9"/>
		<g>
			<path class="st4" d="M36,35.3L36,35.3C36,35.2,36,35.2,36,35.3z"/>
			<path class="st4" d="M10.5,35.4l0.1-0.2C10.6,35.2,10.6,35.2,10.5,35.4z"/>
			<path class="st13" d="M29.3,23.4l7.3,12.1L9.9,35.4l7.6-11.4l4.5,3.2c1.7,0.8,3.2,0.7,5-0.7L29.3,23.4z"/>
			<path class="st14" d="M18,24C17.9,24,17.9,24,18,24C8.9,22.3,1.1,46.8,1.1,46.8c3.8-1.7,7.1-0.2,8.5,0.5c0.3,0.2,0-7.8,0.9-11.8
				c0.1-0.2,0.1-0.2,0.1-0.2"/>
			<path class="st15" d="M29.1,23.5c0,0-1.8,5.2-5.7,4c-3.1-1-5-3-5.3-3.4"/>
			<path class="st14" d="M10.6,35.2c0.5,1.1-1.1,34.3,0,34.4c5.5,0.7,13.1-0.1,15.5-0.7c4.3-1.1,7.7-3.2,11.1-0.4
				c6,4.9-0.9-31.1-1.2-33.2"/>
			<path class="st14" d="M36,35.3C36,35.2,36,35.2,36,35.3c1,4.1,3.3,10.8,3.6,10.6c2.6-1.2,3.9-1.6,7.7,0.1
				C51,47.8,38.9,23.3,29,23.4"/>
		</g>
	</g>
</g>
</svg>
