<?xml version="1.0" encoding="utf-8"?>
<!-- Generator: Adobe Illustrator 20.1.0, SVG Export Plug-In . SVG Version: 6.00 Build 0)  -->
<svg version="1.1" xmlns="http://www.w3.org/2000/svg" xmlns:xlink="http://www.w3.org/1999/xlink" x="0px" y="0px"
	 viewBox="0 0 47.9 119.5" style="enable-background:new 0 0 47.9 119.5;" xml:space="preserve">
<style type="text/css">
	.st0{fill:#603813;}
	.st1{fill:none;stroke:#000000;stroke-width:0.2275;stroke-miterlimit:10;}
	.st2{stroke:#000000;stroke-width:0.2275;stroke-miterlimit:10;}
	.st3{fill:#603813;stroke:#000000;stroke-miterlimit:10;}
	.st4{fill:none;}
	.st5{stroke:#000000;stroke-miterlimit:10;}
	.st6{fill:none;stroke:#000000;stroke-width:0.5639;stroke-miterlimit:10;}
	.st7{fill:#FFFFFF;stroke:#000000;stroke-width:0.4596;stroke-miterlimit:10;}
	.st8{fill:#FFFFFF;}
	.st9{fill:none;stroke:#000000;stroke-width:0.4712;stroke-miterlimit:10;}
	.st10{fill:none;stroke:#000000;stroke-width:0.3392;stroke-miterlimit:10;}
	.st11{fill:none;stroke:#000000;stroke-width:0.4072;stroke-miterlimit:10;}
	.st12{fill:#603813;stroke:#000000;stroke-width:0.2593;stroke-miterlimit:10;}
	.st13{fill:#C6803A;}
	.st14{fill:#C6803A;stroke:#000000;stroke-width:0.3546;stroke-miterlimit:10;}
	.st15{fill:none;stroke:#000000;stroke-width:0.3546;stroke-miterlimit:10;}
</style>
<g id="Layer_3">
	<g id="XMLID_1_">
		<g>
			<path class="st0" d="M26.1,20.2c0,0,1.3,3,1,3.5c-5.4,11.4-9.6,0.4-9.6,0.4c0.6-0.2,0.9-3.8,0.9-3.8L26.1,20.2z"/>
		</g>
		<g>
			<path class="st1" d="M27.2,23.7c0.2-0.5-1-3.5-1-3.5l-7.6,0c0,0-0.4,3.6-0.9,3.8C17.6,24.1,21.7,35.1,27.2,23.7z"/>
		</g>
	</g>
	<g>
		<g>
			<ellipse class="st0" cx="22.3" cy="13.4" rx="6.3" ry="8.6"/>
			<path d="M22.3,4.9c3.4,0,6.1,3.8,6.1,8.5s-2.7,8.5-6.1,8.5s-6.1-3.8-6.1-8.5S19,4.9,22.3,4.9 M22.3,4.6c-3.5,0-6.4,3.9-6.4,8.7
				s2.9,8.7,6.4,8.7s6.4-3.9,6.4-8.7S25.9,4.6,22.3,4.6L22.3,4.6z"/>
		</g>
		<path class="st2" d="M28.3,10.4c-4.4-1.6-11.8,0-11.8,0S15.9,7.3,16,5.6c0,0,0-0.1,0-0.1c0-0.1,0-0.1,0-0.2c0,0,0-0.1,0-0.1
			c0-0.4,0.1-0.5,0.3-0.7c0,0,0.1,0,0.1-0.1C16.7,4,17.1,4,17.6,4c0,0,0.1,0,0.1-0.1c0.3-0.1,0.5-0.3,0.8-0.2c0,0,0.1,0,0.1,0
			c0.1,0,0.2,0,0.3,0c0,0,0.1,0,0.1,0c0,0,0.1,0,0.1,0c0.6-0.4,0.8,0,1.2-0.1c0,0,0,0,0.1,0c0,0,0,0,0.1,0c0,0,0.1,0,0.1,0
			c0,0,0.1,0,0.1,0c0,0,0.1,0,0.1,0c0.4-0.4,1.1,0,1.6-0.4c0,0,0.1,0,0.1,0c0.1,0,0.1,0,0.2,0s0.1,0,0.2,0c0.2,0,0.5,0,0.7-0.1
			C23.7,3,23.8,3,23.8,3c0.2-0.1,0.5-0.1,0.7,0.1c0,0,0.1,0,0.1,0c0.3-0.1,0.5-0.1,1,0.1c0.1,0,0.1,0,0.1,0c0.3,0,0.6-0.1,0.8,0
			c0,0,0.1,0,0.1,0c0.6,0,1-0.2,1.3,0.2c0,0,0.1,0,0.1,0c0.3-0.1,0.4-0.1,0.6,0c0,0,0.1,0,0.1,0c0.6,0.2,0.4,0.7,0.4,1.1
			c0,0.1,0,0.2,0.1,0.3c0,0,0,0,0,0.1C29.6,6.8,28.3,10.4,28.3,10.4z"/>
	</g>
</g>
<g id="Layer_1">
	<g>
		<polyline class="st3" points="29.6,104.1 29.6,110 25.6,108.9 25.6,103.1 		"/>
		<polyline class="st3" points="16.6,104.1 16.6,109.5 20.6,108.5 20.6,103.1 		"/>
		<g>
			<path class="st4" d="M24.5,75.1c-0.5,0-0.4,0-1.4,0V78v-2.9c-1,0-0.4,0-0.4,0s-0.2,4-0.5,9h3.2C25.2,79.1,24.9,75.1,24.5,75.1z"
				/>
			<path class="st5" d="M23.6,74.6V61.4c-8,0.2-11.2-1.1-13-1.1c0,0,1,12.4,2.3,24.4h9.3c0.3-5,0.5-10,0.5-10S22.6,74.6,23.6,74.6z"
				/>
			<path class="st5" d="M35,60.3c-4.6,0.8-9.3,1.1-11.3,1.1v13.2c0,0,0.4,0,0.9,0c0.4,0,0.7,5,0.9,10h8C35,72.6,36.6,60,35,60.3z"/>
			<path class="st5" d="M16,104.9c0,0,3.3,1.1,4.3-0.5c0.6-1,1.4-11.7,1.8-19.7h-9.3C14,93.6,15.1,102.2,16,104.9z"/>
			<path class="st5" d="M25.4,84.6c0.3,8,0.4,19.8,0.5,20.4c0.2,0.9,4.7,1,4.7-0.6c0-0.7,1.5-9.8,2.8-19.8H25.4z"/>
		</g>
	</g>
	<path class="st6" d="M24.1,107.1"/>
	<g>
		<path class="st7" d="M13.8,110.6"/>
		<path class="st7" d="M11,109.7"/>
		<g id="XMLID_2_">
			<g>
				<path class="st8" d="M21.6,108.7c0.4,0.2-10.9,5.4-10.9,5.4l5.5-6.1c0.3-0.2,0.5-0.3,0.5-0.3c1.7,0.2,3.5-0.2,4-2.1
					c0-0.2,0-0.6,0-0.6C22.5,104.5,21.5,108.7,21.6,108.7z"/>
				<path class="st8" d="M14.1,107.1c2.7-3.1,2.2,0.9,2.2,0.9l-0.1,0.1c-1.3,0.7-4.7,2.6-5,3.6c-0.4,1.3-0.5,2.4-0.5,2.4
					c-0.6,0.1-2,0.2-2.3-0.6c-0.3-0.7,0.4-1.4,0.8-1.8c0.3-0.3,0.5-0.6,0.8-0.8C11.1,109.8,12.9,108.1,14.1,107.1z"/>
				<path class="st8" d="M16.2,108l-5.5,6.1c0,0,0.1-1.1,0.5-2.4C11.5,110.7,14.9,108.8,16.2,108z"/>
			</g>
			<g>
				<path class="st9" d="M10.7,114.1c0,0,11.2-5.2,10.9-5.4c0,0,1-4.3-0.8-3.6c0,0,0,0.4,0,0.6c-0.5,1.9-2.3,2.3-4,2.1
					c0,0-0.2,0.1-0.5,0.3c-1.3,0.7-4.7,2.6-5,3.6C10.8,113,10.7,114.1,10.7,114.1c-0.6,0.1-2,0.2-2.3-0.6c-0.3-0.7,0.4-1.4,0.8-1.8
					c0.3-0.3,0.5-0.6,0.8-0.8c1.1-1.1,2.9-2.8,4.1-3.8c2.7-3.1,2.2,0.9,2.2,0.9"/>
			</g>
		</g>
		<path class="st10" d="M13,108.2c0,0,2.3-0.2,2.1,0.4"/>
		<path class="st10" d="M11.9,109.2c0,0,2.2-0.3,2,0.3"/>
		<path class="st10" d="M13.4,109.7c0,0-0.2-0.9-0.8-1.2"/>
		<path class="st10" d="M12.2,110.6c0,0,0-0.9-0.6-1.1"/>
		<path class="st10" d="M14.6,109c-0.1,0-0.5-1.3-1-1.6"/>
		<path class="st10" d="M11.1,109.8c0,0,1.3-0.1,1.7,0.3"/>
		<path class="st10" d="M11.5,111.4c0,0-0.1-1.1-0.7-1.3"/>
		<path class="st11" d="M11.3,112.1c0,0-0.6-0.7-1.6-0.7"/>
		<path class="st10" d="M10.2,110.8c0,0,1.8-0.5,1.7-0.1"/>
	</g>
	<path class="st6" d="M22.4,107.6"/>
	<g>
		<path class="st7" d="M32.7,111.2"/>
		<g>
			<path class="st10" d="M31.8,109.6c0.1,0,0.5-1.3,1-1.6"/>
			<g>
				<path class="st7" d="M35.5,110.2"/>
				<g id="XMLID_3_">
					<g>
						<path class="st8" d="M24.9,109.2c-0.4,0.2,10.9,5.4,10.9,5.4l-5.5-6.1c-0.3-0.2-0.5-0.3-0.5-0.3c-1.7,0.2-3.5-0.2-4-2.1
							c0-0.2,0-0.6,0-0.6C23.9,105,24.9,109.2,24.9,109.2z"/>
						<path class="st8" d="M32.4,107.6c-3.2-3.4-2.2,0.9-2.2,0.9l0.1,0.1c1.3,0.7,4.7,2.6,5,3.6c0.4,1.3,0.5,2.4,0.5,2.4
							c0.6,0.1,2,0.2,2.3-0.6c0.3-0.7-0.4-1.4-0.8-1.8c-0.3-0.3-0.5-0.6-0.8-0.8C35.3,110.3,33.5,108.6,32.4,107.6z"/>
						<path class="st8" d="M30.2,108.6l5.5,6.1c0,0-0.1-1.1-0.5-2.4C34.9,111.2,31.6,109.3,30.2,108.6z"/>
					</g>
					<g>
						<path class="st9" d="M35.8,114.6c0,0-11.2-5.2-10.9-5.4c0,0-1-4.3,0.8-3.6c0,0,0,0.4,0,0.6c0.5,1.9,2.3,2.3,4,2.1
							c0,0,0.2,0.1,0.5,0.3c1.3,0.7,4.7,2.6,5,3.6C35.6,113.5,35.8,114.6,35.8,114.6c0.6,0.1,2,0.2,2.3-0.6c0.3-0.7-0.4-1.4-0.8-1.8
							c-0.3-0.3-0.5-0.6-0.8-0.8c-1.1-1.1-2.9-2.8-4.1-3.8c-3.2-3.4-2.2,0.9-2.2,0.9"/>
					</g>
				</g>
				<path class="st10" d="M33.5,108.8c0,0-2.3-0.2-2.1,0.4"/>
				<path class="st10" d="M34.5,109.7c0,0-2.2-0.3-2,0.3"/>
				<path class="st10" d="M33,110.2c0,0,0.2-0.9,0.8-1.2"/>
				<path class="st10" d="M34.3,111.1c0,0,0-0.9,0.6-1.1"/>
				<path class="st10" d="M35.3,110.3c0,0-1.3-0.1-1.7,0.3"/>
				<path class="st10" d="M35,111.9c0,0,0.1-1.1,0.7-1.3"/>
				<path class="st11" d="M35.2,112.6c0,0,0.6-0.7,1.6-0.7"/>
				<path class="st10" d="M36.2,111.4c0,0-1.8-0.5-1.7-0.1"/>
			</g>
		</g>
		<path class="st10" d="M32,109.6c0.1,0,0.5-1.3,1-1.6"/>
	</g>
	<path class="st10" d="M21.7,108"/>
	<g>
		<path class="st12" d="M43.6,42.2c0,0,1.7,19.1,0.1,21.8c-1.6,2.7-2.6,0-2.6,0S38,43.5,38.8,42.2"/>
		<path class="st12" d="M3.5,43.2c0,0-1.9,18.6-0.4,21.3c1.6,2.7,2.6,0,2.6,0s3-20,2.4-20.9"/>
		<g>
			<path class="st4" d="M34.4,33.9L34.4,33.9C34.4,33.8,34.4,33.8,34.4,33.9z"/>
			<path class="st4" d="M10.1,34l0.1-0.2C10.2,33.8,10.2,33.8,10.1,34z"/>
			<path class="st13" d="M28.1,22.5l7,11.6L9.6,33.9L16.8,23l4.3,3c1.6,0.8,3,0.7,4.8-0.6L28.1,22.5z"/>
			<path class="st14" d="M17.2,23.1C17.2,23.1,17.2,23,17.2,23.1C8.6,21.5,1.1,44.8,1.1,44.8c3.6-1.6,6.7-0.2,8.1,0.5
				c0.3,0.1,0-7.4,0.9-11.3c0-0.2,0.1-0.2,0.1-0.2"/>
			<path class="st15" d="M27.8,22.6c0,0-1.7,4.9-5.5,3.8c-3-0.9-4.8-2.9-5.1-3.2"/>
			<path class="st14" d="M10.2,33.8c0.4,1-1.1,32.8,0,32.9c5.2,0.7,12.5-0.1,14.8-0.6c4.1-1,7.4-3.1,10.6-0.4
				c5.7,4.7-0.8-29.7-1.1-31.8"/>
			<path class="st14" d="M34.4,33.9C34.4,33.8,34.4,33.8,34.4,33.9c1,3.9,3.1,10.3,3.4,10.2c2.5-1.2,3.7-1.6,7.3,0.1
				c3.6,1.6-7.9-21.8-17.3-21.6"/>
		</g>
	</g>
</g>
</svg>
